# xmcd
#
# Track frame offsets:
#	150
#	12645
#	21934
#	35095
#	46295
#	58559
#	73136
#	87165
#	97583
#	110432
#	120930
#	134968
#	149292
#	162166
#	171844
#
# Disc length: 2460 seconds
#
# Revision: 1
# Processed by: cddbd v1.4PL0 Copyright (c) Steve Scherf et al.
# Submitted via: audiograbber 1.82.02
#
DISCID=ce099a0f
DTITLE=Various Artist - Triple Value Country Disc 1
DYEAR=1900
DGENRE=Country
TTITLE0=Johnny Cash - Walk The Line
TTITLE1=Frankie Laine - Rawhide
TTITLE2=Kenny Rogers - Ruby, Don`t Take Your Love To Town
TTITLE3=Don Gibson - Oh, Lonesome Me
TTITLE4=Johnny Paycheck - Take This Job And Shove It
TTITLE5=Loretta Lynn - Coal Miner`s Daughter
TTITLE6=Matt Flinders - By The Time I Get To Phoenix
TTITLE7=Dave Dudley - Six Days On The Road
TTITLE8=Charlie Rich - The Most Beauriful Girl In The World
TTITLE9=Patsy Cline - Lovesick Blues
TTITLE10=Barbara Fairchild - Teddy Bear Song
TTITLE11=BJ Thomas - I`m So Lonesome I Could Cry
TTITLE12=John Willamson - Old Man Emu
TTITLE13=Dave Dudley - Truck Driving Son Of A Gun
TTITLE14=Patti Page - Old Cape Cod
EXTD=
EXTT0=
EXTT1=
EXTT2=
EXTT3=
EXTT4=
EXTT5=
EXTT6=
EXTT7=
EXTT8=
EXTT9=
EXTT10=
EXTT11=
EXTT12=
EXTT13=
EXTT14=
PLAYORDER=
